<svg width="68" height="125" viewBox="0 0 68 125" fill="none" xmlns="http://www.w3.org/2000/svg">
<g filter="url(#filter0_d_74_74)">
<path d="M38 4C38 1.79086 36.2091 0 34 0C31.7909 0 30 1.79086 30 4L38 4ZM31.1716 115.828C32.7337 117.391 35.2663 117.391 36.8284 115.828L62.2843 90.3726C63.8464 88.8105 63.8464 86.2778 62.2843 84.7157C60.7222 83.1536 58.1895 83.1536 56.6274 84.7157L34 107.343L11.3726 84.7157C9.81049 83.1536 7.27783 83.1536 5.71573 84.7157C4.15363 86.2778 4.15363 88.8105 5.71573 90.3726L31.1716 115.828ZM30 4L30 113H38L38 4L30 4Z" fill="white"/>
</g>
<defs>
<filter id="filter0_d_74_74" x="0.544128" y="0" width="66.9117" height="125" filterUnits="userSpaceOnUse" color-interpolation-filters="sRGB">
<feFlood flood-opacity="0" result="BackgroundImageFix"/>
<feColorMatrix in="SourceAlpha" type="matrix" values="0 0 0 0 0 0 0 0 0 0 0 0 0 0 0 0 0 0 127 0" result="hardAlpha"/>
<feOffset dy="4"/>
<feGaussianBlur stdDeviation="2"/>
<feComposite in2="hardAlpha" operator="out"/>
<feColorMatrix type="matrix" values="0 0 0 0 0 0 0 0 0 0 0 0 0 0 0 0 0 0 0.25 0"/>
<feBlend mode="normal" in2="BackgroundImageFix" result="effect1_dropShadow_74_74"/>
<feBlend mode="normal" in="SourceGraphic" in2="effect1_dropShadow_74_74" result="shape"/>
</filter>
</defs>
</svg>
