<svg width="121" height="39" viewBox="0 0 121 39" fill="none" xmlns="http://www.w3.org/2000/svg">
<path d="M30.6229 19L26.1509 4.44H26.0469C26.0642 4.78667 26.0902 5.30667 26.1249 6C26.1595 6.69333 26.1942 7.43867 26.2289 8.236C26.2635 9.016 26.2809 9.72667 26.2809 10.368V19H22.7709V0.435999H28.1269L32.5209 14.632H32.5989L37.2529 0.435999H42.6089V19H38.9429V10.212C38.9429 9.62267 38.9515 8.94667 38.9689 8.184C39.0035 7.42133 39.0295 6.702 39.0469 6.026C39.0815 5.33267 39.1075 4.81267 39.1249 4.466H39.0209L34.2369 19H30.6229ZM59.9602 19L58.6082 14.58H51.8482L50.4962 19H46.2582L52.8102 0.358H57.6202L64.1982 19H59.9602ZM56.3202 6.962C56.2335 6.66733 56.1209 6.29467 55.9822 5.844C55.8435 5.39333 55.7049 4.934 55.5662 4.466C55.4275 3.998 55.3149 3.59067 55.2282 3.244C55.1415 3.59067 55.0202 4.024 54.8642 4.544C54.7255 5.04667 54.5869 5.532 54.4482 6C54.3269 6.45067 54.2315 6.77133 54.1622 6.962L52.8362 11.278H57.6722L56.3202 6.962ZM74.0894 11.876L69.7474 19H65.3794L70.6574 10.836C70.1547 10.628 69.652 10.3247 69.1494 9.926C68.6467 9.51 68.2307 8.964 67.9014 8.288C67.572 7.59467 67.4074 6.74533 67.4074 5.74C67.4074 4.024 68.0227 2.71533 69.2534 1.814C70.484 0.895332 72.2087 0.435999 74.4274 0.435999H80.4594V19H76.5334V11.876H74.0894ZM74.5834 3.66C73.9074 3.66 73.3267 3.738 72.8414 3.894C72.3734 4.05 72.0094 4.30133 71.7494 4.648C71.5067 4.99467 71.3854 5.454 71.3854 6.026C71.3854 6.84067 71.654 7.49067 72.1914 7.976C72.746 8.444 73.578 8.678 74.6874 8.678H76.5334V3.66H74.5834ZM101.572 19H97.1004L90.3664 9.588V19H86.4404V0.435999H90.3664V9.432L97.0224 0.435999H101.208L94.4484 9.354L101.572 19Z" fill="#BFA315"/>
<path d="M39.3634 29V24.832H42.7154V29H42.1714V25.32H39.9074V29H39.3634ZM47.1663 29.08C46.8196 29.08 46.5076 28.9893 46.2303 28.808C45.9583 28.6267 45.7423 28.4027 45.5823 28.136V30.704H45.0383V24.832H45.5263V25.64C45.6916 25.3787 45.9129 25.168 46.1903 25.008C46.4676 24.8427 46.7636 24.76 47.0783 24.76C47.3663 24.76 47.6303 24.8213 47.8703 24.944C48.1103 25.0613 48.3183 25.2213 48.4943 25.424C48.6703 25.6267 48.8063 25.8587 48.9023 26.12C49.0036 26.376 49.0543 26.6427 49.0543 26.92C49.0543 27.3093 48.9743 27.6693 48.8143 28C48.6596 28.3253 48.4409 28.5867 48.1583 28.784C47.8756 28.9813 47.5449 29.08 47.1663 29.08ZM47.0143 28.6C47.2436 28.6 47.4489 28.5547 47.6303 28.464C47.8116 28.368 47.9663 28.24 48.0943 28.08C48.2276 27.92 48.3289 27.7413 48.3983 27.544C48.4676 27.3413 48.5023 27.1333 48.5023 26.92C48.5023 26.696 48.4623 26.4827 48.3823 26.28C48.3076 26.0773 48.1983 25.8987 48.0543 25.744C47.9103 25.5893 47.7449 25.4667 47.5583 25.376C47.3716 25.2853 47.1689 25.24 46.9503 25.24C46.8116 25.24 46.6676 25.2667 46.5183 25.32C46.3689 25.3733 46.2249 25.4507 46.0863 25.552C45.9529 25.648 45.8409 25.7573 45.7503 25.88C45.6596 26.0027 45.6036 26.1333 45.5823 26.272V27.552C45.6676 27.7493 45.7823 27.928 45.9263 28.088C46.0703 28.2427 46.2356 28.368 46.4223 28.464C46.6143 28.5547 46.8116 28.6 47.0143 28.6ZM50.7598 27.8C50.7598 27.5387 50.8344 27.3147 50.9838 27.128C51.1331 26.936 51.3384 26.7893 51.5998 26.688C51.8664 26.5813 52.1731 26.528 52.5198 26.528C52.7224 26.528 52.9331 26.544 53.1518 26.576C53.3704 26.608 53.5651 26.656 53.7358 26.72V26.368C53.7358 26.016 53.6318 25.736 53.4238 25.528C53.2158 25.32 52.9278 25.216 52.5598 25.216C52.3358 25.216 52.1144 25.2587 51.8958 25.344C51.6824 25.424 51.4584 25.544 51.2238 25.704L51.0158 25.32C51.2878 25.1333 51.5544 24.9947 51.8158 24.904C52.0771 24.808 52.3438 24.76 52.6158 24.76C53.1278 24.76 53.5331 24.9067 53.8318 25.2C54.1304 25.4933 54.2798 25.8987 54.2798 26.416V28.344C54.2798 28.4187 54.2958 28.4747 54.3278 28.512C54.3598 28.544 54.4104 28.5627 54.4798 28.568V29C54.4211 29.0053 54.3704 29.0107 54.3278 29.016C54.2851 29.0213 54.2531 29.0213 54.2318 29.016C54.0984 29.0107 53.9971 28.968 53.9278 28.888C53.8584 28.808 53.8211 28.7227 53.8158 28.632L53.8078 28.328C53.6211 28.568 53.3784 28.7547 53.0798 28.888C52.7811 29.016 52.4771 29.08 52.1678 29.08C51.9011 29.08 51.6584 29.024 51.4398 28.912C51.2264 28.7947 51.0584 28.64 50.9358 28.448C50.8184 28.2507 50.7598 28.0347 50.7598 27.8ZM53.5518 28.12C53.6104 28.0453 53.6558 27.9733 53.6878 27.904C53.7198 27.8347 53.7358 27.7733 53.7358 27.72V27.112C53.5544 27.0427 53.3651 26.9893 53.1678 26.952C52.9758 26.9147 52.7811 26.896 52.5838 26.896C52.1944 26.896 51.8798 26.9733 51.6398 27.128C51.3998 27.2827 51.2798 27.4933 51.2798 27.76C51.2798 27.9147 51.3198 28.0613 51.3998 28.2C51.4798 28.3333 51.5971 28.4453 51.7518 28.536C51.9064 28.6213 52.0878 28.664 52.2958 28.664C52.5571 28.664 52.7998 28.6133 53.0238 28.512C53.2531 28.4107 53.4291 28.28 53.5518 28.12ZM56.5672 29V24.832H58.6472C58.8818 24.832 59.0792 24.8827 59.2392 24.984C59.3992 25.08 59.5192 25.2053 59.5992 25.36C59.6845 25.5147 59.7272 25.68 59.7272 25.856C59.7272 26.08 59.6738 26.2827 59.5672 26.464C59.4605 26.64 59.3058 26.7733 59.1032 26.864C59.3432 26.9333 59.5378 27.0587 59.6872 27.24C59.8365 27.4213 59.9112 27.64 59.9112 27.896C59.9112 28.12 59.8552 28.3147 59.7432 28.48C59.6365 28.6453 59.4872 28.7733 59.2952 28.864C59.1085 28.9547 58.8925 29 58.6472 29H56.5672ZM57.0872 28.608H58.6312C58.7698 28.608 58.8952 28.5733 59.0072 28.504C59.1245 28.4293 59.2152 28.3333 59.2792 28.216C59.3485 28.0987 59.3832 27.976 59.3832 27.848C59.3832 27.7093 59.3512 27.584 59.2872 27.472C59.2232 27.3547 59.1378 27.2613 59.0312 27.192C58.9245 27.1227 58.8018 27.088 58.6632 27.088H57.0872V28.608ZM57.0872 26.712H58.5032C58.6418 26.712 58.7645 26.6747 58.8712 26.6C58.9778 26.5253 59.0605 26.4293 59.1192 26.312C59.1778 26.1947 59.2072 26.072 59.2072 25.944C59.2072 25.752 59.1432 25.584 59.0152 25.44C58.8925 25.296 58.7325 25.224 58.5352 25.224H57.0872V26.712ZM63.7524 29.08C63.4537 29.08 63.1764 29.024 62.9204 28.912C62.6697 28.7947 62.4511 28.6373 62.2644 28.44C62.0831 28.2373 61.9417 28.008 61.8404 27.752C61.7391 27.4907 61.6884 27.216 61.6884 26.928C61.6884 26.6293 61.7391 26.352 61.8404 26.096C61.9417 25.8347 62.0857 25.6053 62.2724 25.408C62.4591 25.2053 62.6777 25.048 62.9284 24.936C63.1844 24.8187 63.4617 24.76 63.7604 24.76C64.0591 24.76 64.3337 24.8187 64.5844 24.936C64.8351 25.048 65.0537 25.2053 65.2404 25.408C65.4271 25.6053 65.5711 25.8347 65.6724 26.096C65.7737 26.352 65.8244 26.6293 65.8244 26.928C65.8244 27.216 65.7737 27.4907 65.6724 27.752C65.5711 28.008 65.4271 28.2373 65.2404 28.44C65.0591 28.6373 64.8404 28.7947 64.5844 28.912C64.3337 29.024 64.0564 29.08 63.7524 29.08ZM62.2404 26.936C62.2404 27.2453 62.3071 27.528 62.4404 27.784C62.5791 28.0347 62.7631 28.2347 62.9924 28.384C63.2217 28.528 63.4751 28.6 63.7524 28.6C64.0297 28.6 64.2831 28.5253 64.5124 28.376C64.7417 28.2267 64.9257 28.024 65.0644 27.768C65.2031 27.5067 65.2724 27.224 65.2724 26.92C65.2724 26.6107 65.2031 26.328 65.0644 26.072C64.9257 25.816 64.7417 25.6133 64.5124 25.464C64.2831 25.3147 64.0297 25.24 63.7524 25.24C63.4751 25.24 63.2217 25.3173 62.9924 25.472C62.7684 25.6267 62.5871 25.832 62.4484 26.088C62.3097 26.3387 62.2404 26.6213 62.2404 26.936ZM67.8462 29V24.832H69.9262C70.1609 24.832 70.3582 24.8827 70.5182 24.984C70.6782 25.08 70.7982 25.2053 70.8782 25.36C70.9636 25.5147 71.0062 25.68 71.0062 25.856C71.0062 26.08 70.9529 26.2827 70.8462 26.464C70.7396 26.64 70.5849 26.7733 70.3822 26.864C70.6222 26.9333 70.8169 27.0587 70.9662 27.24C71.1156 27.4213 71.1902 27.64 71.1902 27.896C71.1902 28.12 71.1342 28.3147 71.0222 28.48C70.9156 28.6453 70.7662 28.7733 70.5742 28.864C70.3876 28.9547 70.1716 29 69.9262 29H67.8462ZM68.3662 28.608H69.9102C70.0489 28.608 70.1742 28.5733 70.2862 28.504C70.4036 28.4293 70.4942 28.3333 70.5582 28.216C70.6276 28.0987 70.6622 27.976 70.6622 27.848C70.6622 27.7093 70.6302 27.584 70.5662 27.472C70.5022 27.3547 70.4169 27.2613 70.3102 27.192C70.2036 27.1227 70.0809 27.088 69.9422 27.088H68.3662V28.608ZM68.3662 26.712H69.7822C69.9209 26.712 70.0436 26.6747 70.1502 26.6C70.2569 26.5253 70.3396 26.4293 70.3982 26.312C70.4569 26.1947 70.4862 26.072 70.4862 25.944C70.4862 25.752 70.4222 25.584 70.2942 25.44C70.1716 25.296 70.0116 25.224 69.8142 25.224H68.3662V26.712ZM75.0315 29.08C74.7328 29.08 74.4555 29.024 74.1995 28.912C73.9488 28.7947 73.7301 28.6373 73.5435 28.44C73.3621 28.2373 73.2208 28.008 73.1195 27.752C73.0181 27.4907 72.9675 27.216 72.9675 26.928C72.9675 26.6293 73.0181 26.352 73.1195 26.096C73.2208 25.8347 73.3648 25.6053 73.5515 25.408C73.7381 25.2053 73.9568 25.048 74.2075 24.936C74.4635 24.8187 74.7408 24.76 75.0395 24.76C75.3381 24.76 75.6128 24.8187 75.8635 24.936C76.1141 25.048 76.3328 25.2053 76.5195 25.408C76.7061 25.6053 76.8501 25.8347 76.9515 26.096C77.0528 26.352 77.1035 26.6293 77.1035 26.928C77.1035 27.216 77.0528 27.4907 76.9515 27.752C76.8501 28.008 76.7061 28.2373 76.5195 28.44C76.3381 28.6373 76.1195 28.7947 75.8635 28.912C75.6128 29.024 75.3355 29.08 75.0315 29.08ZM73.5195 26.936C73.5195 27.2453 73.5861 27.528 73.7195 27.784C73.8581 28.0347 74.0421 28.2347 74.2715 28.384C74.5008 28.528 74.7541 28.6 75.0315 28.6C75.3088 28.6 75.5621 28.5253 75.7915 28.376C76.0208 28.2267 76.2048 28.024 76.3435 27.768C76.4821 27.5067 76.5515 27.224 76.5515 26.92C76.5515 26.6107 76.4821 26.328 76.3435 26.072C76.2048 25.816 76.0208 25.6133 75.7915 25.464C75.5621 25.3147 75.3088 25.24 75.0315 25.24C74.7541 25.24 74.5008 25.3173 74.2715 25.472C74.0475 25.6267 73.8661 25.832 73.7275 26.088C73.5888 26.3387 73.5195 26.6213 73.5195 26.936ZM80.9333 29.08C80.6346 29.08 80.3573 29.024 80.1013 28.912C79.8453 28.7947 79.6239 28.6373 79.4373 28.44C79.2506 28.2373 79.1039 28.0053 78.9973 27.744C78.8959 27.4827 78.8453 27.2027 78.8453 26.904C78.8453 26.5147 78.9333 26.1573 79.1093 25.832C79.2906 25.5067 79.5386 25.248 79.8533 25.056C80.1679 24.8587 80.5253 24.76 80.9253 24.76C81.3359 24.76 81.6933 24.8587 81.9973 25.056C82.3066 25.2533 82.5493 25.5147 82.7253 25.84C82.9013 26.16 82.9893 26.512 82.9893 26.896C82.9893 26.9387 82.9893 26.9813 82.9893 27.024C82.9893 27.0613 82.9866 27.0907 82.9813 27.112H79.4133C79.4399 27.4107 79.5226 27.6773 79.6613 27.912C79.8053 28.1413 79.9893 28.3253 80.2133 28.464C80.4426 28.5973 80.6906 28.664 80.9573 28.664C81.2293 28.664 81.4853 28.5947 81.7253 28.456C81.9706 28.3173 82.1413 28.136 82.2373 27.912L82.7093 28.04C82.6239 28.2373 82.4933 28.416 82.3173 28.576C82.1413 28.736 81.9333 28.8613 81.6933 28.952C81.4586 29.0373 81.2053 29.08 80.9333 29.08ZM79.3973 26.72H82.4773C82.4559 26.416 82.3733 26.1493 82.2293 25.92C82.0906 25.6907 81.9066 25.512 81.6773 25.384C81.4533 25.2507 81.2053 25.184 80.9333 25.184C80.6613 25.184 80.4133 25.2507 80.1893 25.384C79.9653 25.512 79.7813 25.6933 79.6373 25.928C79.4986 26.1573 79.4186 26.4213 79.3973 26.72ZM0.769627 36.8C0.769627 36.5387 0.844293 36.3147 0.993627 36.128C1.14296 35.936 1.34829 35.7893 1.60963 35.688C1.87629 35.5813 2.18296 35.528 2.52963 35.528C2.73229 35.528 2.94296 35.544 3.16163 35.576C3.38029 35.608 3.57496 35.656 3.74563 35.72V35.368C3.74563 35.016 3.64163 34.736 3.43363 34.528C3.22563 34.32 2.93763 34.216 2.56963 34.216C2.34563 34.216 2.12429 34.2587 1.90563 34.344C1.69229 34.424 1.46829 34.544 1.23363 34.704L1.02563 34.32C1.29763 34.1333 1.56429 33.9947 1.82563 33.904C2.08696 33.808 2.35363 33.76 2.62563 33.76C3.13763 33.76 3.54296 33.9067 3.84163 34.2C4.14029 34.4933 4.28963 34.8987 4.28963 35.416V37.344C4.28963 37.4187 4.30563 37.4747 4.33763 37.512C4.36963 37.544 4.42029 37.5627 4.48963 37.568V38C4.43096 38.0053 4.38029 38.0107 4.33763 38.016C4.29496 38.0213 4.26296 38.0213 4.24163 38.016C4.10829 38.0107 4.00696 37.968 3.93763 37.888C3.86829 37.808 3.83096 37.7227 3.82563 37.632L3.81763 37.328C3.63096 37.568 3.38829 37.7547 3.08963 37.888C2.79096 38.016 2.48696 38.08 2.17763 38.08C1.91096 38.08 1.66829 38.024 1.44963 37.912C1.23629 37.7947 1.06829 37.64 0.945627 37.448C0.828293 37.2507 0.769627 37.0347 0.769627 36.8ZM3.56163 37.12C3.62029 37.0453 3.66563 36.9733 3.69763 36.904C3.72963 36.8347 3.74563 36.7733 3.74563 36.72V36.112C3.56429 36.0427 3.37496 35.9893 3.17763 35.952C2.98563 35.9147 2.79096 35.896 2.59363 35.896C2.20429 35.896 1.88963 35.9733 1.64963 36.128C1.40963 36.2827 1.28963 36.4933 1.28963 36.76C1.28963 36.9147 1.32963 37.0613 1.40963 37.2C1.48963 37.3333 1.60696 37.4453 1.76163 37.536C1.91629 37.6213 2.09763 37.664 2.30563 37.664C2.56696 37.664 2.80963 37.6133 3.03363 37.512C3.26296 37.4107 3.43896 37.28 3.56163 37.12ZM6.577 38V33.832H9.065V34.32H7.121V38H6.577ZM12.7472 38.08C12.4485 38.08 12.1712 38.024 11.9152 37.912C11.6592 37.7947 11.4379 37.6373 11.2512 37.44C11.0645 37.2373 10.9179 37.0053 10.8112 36.744C10.7099 36.4827 10.6592 36.2027 10.6592 35.904C10.6592 35.5147 10.7472 35.1573 10.9232 34.832C11.1045 34.5067 11.3525 34.248 11.6672 34.056C11.9819 33.8587 12.3392 33.76 12.7392 33.76C13.1499 33.76 13.5072 33.8587 13.8112 34.056C14.1205 34.2533 14.3632 34.5147 14.5392 34.84C14.7152 35.16 14.8032 35.512 14.8032 35.896C14.8032 35.9387 14.8032 35.9813 14.8032 36.024C14.8032 36.0613 14.8005 36.0907 14.7952 36.112H11.2272C11.2539 36.4107 11.3365 36.6773 11.4752 36.912C11.6192 37.1413 11.8032 37.3253 12.0272 37.464C12.2565 37.5973 12.5045 37.664 12.7712 37.664C13.0432 37.664 13.2992 37.5947 13.5392 37.456C13.7845 37.3173 13.9552 37.136 14.0512 36.912L14.5232 37.04C14.4379 37.2373 14.3072 37.416 14.1312 37.576C13.9552 37.736 13.7472 37.8613 13.5072 37.952C13.2725 38.0373 13.0192 38.08 12.7472 38.08ZM11.2112 35.72H14.2912C14.2699 35.416 14.1872 35.1493 14.0432 34.92C13.9045 34.6907 13.7205 34.512 13.4912 34.384C13.2672 34.2507 13.0192 34.184 12.7472 34.184C12.4752 34.184 12.2272 34.2507 12.0032 34.384C11.7792 34.512 11.5952 34.6933 11.4512 34.928C11.3125 35.1573 11.2325 35.4213 11.2112 35.72ZM16.7545 38V33.832H17.2985V35.624H19.6825V33.832H20.2265V38H19.6825V36.112H17.2985V38H16.7545ZM23.5866 38V34.32H22.0986V33.832H25.6186V34.32H24.1306V38H23.5866ZM29.2871 38.08C28.9831 38.08 28.7031 38.024 28.4471 37.912C28.1964 37.7947 27.9751 37.6347 27.7831 37.432C27.5964 37.2293 27.4497 36.9973 27.3431 36.736C27.2417 36.4747 27.1911 36.1973 27.1911 35.904C27.1911 35.5093 27.2791 35.1493 27.4551 34.824C27.6311 34.4987 27.8764 34.24 28.1911 34.048C28.5057 33.856 28.8684 33.76 29.2791 33.76C29.6684 33.76 30.0124 33.8507 30.3111 34.032C30.6097 34.208 30.8311 34.448 30.9751 34.752L30.4471 34.92C30.3297 34.7067 30.1644 34.5413 29.9511 34.424C29.7431 34.3013 29.5111 34.24 29.2551 34.24C28.9777 34.24 28.7244 34.312 28.4951 34.456C28.2657 34.6 28.0817 34.7973 27.9431 35.048C27.8097 35.2987 27.7431 35.584 27.7431 35.904C27.7431 36.2187 27.8124 36.504 27.9511 36.76C28.0897 37.016 28.2737 37.2213 28.5031 37.376C28.7324 37.5253 28.9857 37.6 29.2631 37.6C29.4444 37.6 29.6177 37.568 29.7831 37.504C29.9537 37.44 30.1004 37.3547 30.2231 37.248C30.3511 37.136 30.4364 37.016 30.4791 36.888L31.0151 37.048C30.9404 37.2453 30.8151 37.424 30.6391 37.584C30.4684 37.7387 30.2657 37.8613 30.0311 37.952C29.8017 38.0373 29.5537 38.08 29.2871 38.08ZM34.0297 38V34.32H32.5417V33.832H36.0617V34.32H34.5737V38H34.0297ZM37.9142 38V33.832H39.9942C40.2289 33.832 40.4262 33.8827 40.5862 33.984C40.7462 34.08 40.8662 34.2053 40.9462 34.36C41.0315 34.5147 41.0742 34.68 41.0742 34.856C41.0742 35.08 41.0209 35.2827 40.9142 35.464C40.8075 35.64 40.6529 35.7733 40.4502 35.864C40.6902 35.9333 40.8849 36.0587 41.0342 36.24C41.1835 36.4213 41.2582 36.64 41.2582 36.896C41.2582 37.12 41.2022 37.3147 41.0902 37.48C40.9835 37.6453 40.8342 37.7733 40.6422 37.864C40.4555 37.9547 40.2395 38 39.9942 38H37.9142ZM38.4342 37.608H39.9782C40.1169 37.608 40.2422 37.5733 40.3542 37.504C40.4715 37.4293 40.5622 37.3333 40.6262 37.216C40.6955 37.0987 40.7302 36.976 40.7302 36.848C40.7302 36.7093 40.6982 36.584 40.6342 36.472C40.5702 36.3547 40.4849 36.2613 40.3782 36.192C40.2715 36.1227 40.1489 36.088 40.0102 36.088H38.4342V37.608ZM38.4342 35.712H39.8502C39.9889 35.712 40.1115 35.6747 40.2182 35.6C40.3249 35.5253 40.4075 35.4293 40.4662 35.312C40.5249 35.1947 40.5542 35.072 40.5542 34.944C40.5542 34.752 40.4902 34.584 40.3622 34.44C40.2395 34.296 40.0795 34.224 39.8822 34.224H38.4342V35.712ZM45.0994 38.08C44.8008 38.08 44.5234 38.024 44.2674 37.912C44.0168 37.7947 43.7981 37.6373 43.6114 37.44C43.4301 37.2373 43.2888 37.008 43.1874 36.752C43.0861 36.4907 43.0354 36.216 43.0354 35.928C43.0354 35.6293 43.0861 35.352 43.1874 35.096C43.2888 34.8347 43.4328 34.6053 43.6194 34.408C43.8061 34.2053 44.0248 34.048 44.2754 33.936C44.5314 33.8187 44.8088 33.76 45.1074 33.76C45.4061 33.76 45.6808 33.8187 45.9314 33.936C46.1821 34.048 46.4008 34.2053 46.5874 34.408C46.7741 34.6053 46.9181 34.8347 47.0194 35.096C47.1208 35.352 47.1714 35.6293 47.1714 35.928C47.1714 36.216 47.1208 36.4907 47.0194 36.752C46.9181 37.008 46.7741 37.2373 46.5874 37.44C46.4061 37.6373 46.1874 37.7947 45.9314 37.912C45.6808 38.024 45.4034 38.08 45.0994 38.08ZM43.5874 35.936C43.5874 36.2453 43.6541 36.528 43.7874 36.784C43.9261 37.0347 44.1101 37.2347 44.3394 37.384C44.5688 37.528 44.8221 37.6 45.0994 37.6C45.3768 37.6 45.6301 37.5253 45.8594 37.376C46.0888 37.2267 46.2728 37.024 46.4114 36.768C46.5501 36.5067 46.6194 36.224 46.6194 35.92C46.6194 35.6107 46.5501 35.328 46.4114 35.072C46.2728 34.816 46.0888 34.6133 45.8594 34.464C45.6301 34.3147 45.3768 34.24 45.0994 34.24C44.8221 34.24 44.5688 34.3173 44.3394 34.472C44.1154 34.6267 43.9341 34.832 43.7954 35.088C43.6568 35.3387 43.5874 35.6213 43.5874 35.936ZM52.3523 38V33.832H52.8963V35.624H55.2803V33.832H55.8243V38H55.2803V36.112H52.8963V38H52.3523ZM59.9444 38.08C59.6457 38.08 59.3684 38.024 59.1124 37.912C58.8564 37.7947 58.635 37.6373 58.4484 37.44C58.2617 37.2373 58.115 37.0053 58.0084 36.744C57.907 36.4827 57.8564 36.2027 57.8564 35.904C57.8564 35.5147 57.9444 35.1573 58.1204 34.832C58.3017 34.5067 58.5497 34.248 58.8644 34.056C59.179 33.8587 59.5364 33.76 59.9364 33.76C60.347 33.76 60.7044 33.8587 61.0084 34.056C61.3177 34.2533 61.5604 34.5147 61.7364 34.84C61.9124 35.16 62.0004 35.512 62.0004 35.896C62.0004 35.9387 62.0004 35.9813 62.0004 36.024C62.0004 36.0613 61.9977 36.0907 61.9924 36.112H58.4244C58.451 36.4107 58.5337 36.6773 58.6724 36.912C58.8164 37.1413 59.0004 37.3253 59.2244 37.464C59.4537 37.5973 59.7017 37.664 59.9684 37.664C60.2404 37.664 60.4964 37.5947 60.7364 37.456C60.9817 37.3173 61.1524 37.136 61.2484 36.912L61.7204 37.04C61.635 37.2373 61.5044 37.416 61.3284 37.576C61.1524 37.736 60.9444 37.8613 60.7044 37.952C60.4697 38.0373 60.2164 38.08 59.9444 38.08ZM58.4084 35.72H61.4884C61.467 35.416 61.3844 35.1493 61.2404 34.92C61.1017 34.6907 60.9177 34.512 60.6884 34.384C60.4644 34.2507 60.2164 34.184 59.9444 34.184C59.6724 34.184 59.4244 34.2507 59.2004 34.384C58.9764 34.512 58.7924 34.6933 58.6484 34.928C58.5097 35.1573 58.4297 35.4213 58.4084 35.72ZM63.4957 38.968V37.512H63.5677C63.6904 37.512 63.8024 37.4747 63.9037 37.4C64.005 37.3253 64.0957 37.1947 64.1757 37.008C64.2557 36.8213 64.3197 36.5653 64.3677 36.24C64.4157 35.9093 64.4477 35.4933 64.4637 34.992L64.5037 33.832H67.2157V37.512H67.7757V38.968H67.2877V38H63.9757V38.968H63.4957ZM64.3917 37.512H66.6717V34.32H64.9917L64.9677 35.04C64.9517 35.536 64.917 35.952 64.8637 36.288C64.8157 36.6187 64.7517 36.8827 64.6717 37.08C64.597 37.272 64.5037 37.416 64.3917 37.512ZM69.7123 38V33.832H71.7923C72.027 33.832 72.2243 33.8827 72.3843 33.984C72.5443 34.08 72.6643 34.2053 72.7443 34.36C72.8296 34.5147 72.8723 34.68 72.8723 34.856C72.8723 35.08 72.819 35.2827 72.7123 35.464C72.6056 35.64 72.451 35.7733 72.2483 35.864C72.4883 35.9333 72.683 36.0587 72.8323 36.24C72.9816 36.4213 73.0563 36.64 73.0563 36.896C73.0563 37.12 73.0003 37.3147 72.8883 37.48C72.7816 37.6453 72.6323 37.7733 72.4403 37.864C72.2536 37.9547 72.0376 38 71.7923 38H69.7123ZM70.2323 37.608H71.7763C71.915 37.608 72.0403 37.5733 72.1523 37.504C72.2696 37.4293 72.3603 37.3333 72.4243 37.216C72.4936 37.0987 72.5283 36.976 72.5283 36.848C72.5283 36.7093 72.4963 36.584 72.4323 36.472C72.3683 36.3547 72.283 36.2613 72.1763 36.192C72.0696 36.1227 71.947 36.088 71.8083 36.088H70.2323V37.608ZM70.2323 35.712H71.6483C71.787 35.712 71.9096 35.6747 72.0163 35.6C72.123 35.5253 72.2056 35.4293 72.2643 35.312C72.323 35.1947 72.3523 35.072 72.3523 34.944C72.3523 34.752 72.2883 34.584 72.1603 34.44C72.0376 34.296 71.8776 34.224 71.6803 34.224H70.2323V35.712ZM75.1136 38V33.84H75.6576V37.264L78.1936 33.832H78.6816V38H78.1376V34.632L75.6416 38H75.1136ZM80.6956 38L82.2556 35.856L80.8476 33.832H81.4636L82.7196 35.632H83.2636V33.832H83.8236V35.632H84.3836L85.6156 33.832H86.2396L84.8236 35.856L86.3996 38H85.7676L84.3836 36.112H83.8236V38H83.2636V36.112H82.7196L81.3276 38H80.6956ZM88.4161 38V33.84H88.9601V37.264L91.4961 33.832H91.9841V38H91.4401V34.632L88.9441 38H88.4161ZM94.2861 38V33.832H94.8461L96.5021 36.704L98.1661 33.832H98.7021V38H98.1821V34.648L96.6781 37.256H96.3261L94.8061 34.648V38H94.2861ZM102.799 38.08C102.501 38.08 102.223 38.024 101.967 37.912C101.717 37.7947 101.498 37.6373 101.311 37.44C101.13 37.2373 100.989 37.008 100.887 36.752C100.786 36.4907 100.735 36.216 100.735 35.928C100.735 35.6293 100.786 35.352 100.887 35.096C100.989 34.8347 101.133 34.6053 101.319 34.408C101.506 34.2053 101.725 34.048 101.975 33.936C102.231 33.8187 102.509 33.76 102.807 33.76C103.106 33.76 103.381 33.8187 103.631 33.936C103.882 34.048 104.101 34.2053 104.287 34.408C104.474 34.6053 104.618 34.8347 104.719 35.096C104.821 35.352 104.871 35.6293 104.871 35.928C104.871 36.216 104.821 36.4907 104.719 36.752C104.618 37.008 104.474 37.2373 104.287 37.44C104.106 37.6373 103.887 37.7947 103.631 37.912C103.381 38.024 103.103 38.08 102.799 38.08ZM101.287 35.936C101.287 36.2453 101.354 36.528 101.487 36.784C101.626 37.0347 101.81 37.2347 102.039 37.384C102.269 37.528 102.522 37.6 102.799 37.6C103.077 37.6 103.33 37.5253 103.559 37.376C103.789 37.2267 103.973 37.024 104.111 36.768C104.25 36.5067 104.319 36.224 104.319 35.92C104.319 35.6107 104.25 35.328 104.111 35.072C103.973 34.816 103.789 34.6133 103.559 34.464C103.33 34.3147 103.077 34.24 102.799 34.24C102.522 34.24 102.269 34.3173 102.039 34.472C101.815 34.6267 101.634 34.832 101.495 35.088C101.357 35.3387 101.287 35.6213 101.287 35.936ZM108.709 38.08C108.405 38.08 108.125 38.024 107.869 37.912C107.619 37.7947 107.397 37.6347 107.205 37.432C107.019 37.2293 106.872 36.9973 106.765 36.736C106.664 36.4747 106.613 36.1973 106.613 35.904C106.613 35.5093 106.701 35.1493 106.877 34.824C107.053 34.4987 107.299 34.24 107.613 34.048C107.928 33.856 108.291 33.76 108.701 33.76C109.091 33.76 109.435 33.8507 109.733 34.032C110.032 34.208 110.253 34.448 110.397 34.752L109.869 34.92C109.752 34.7067 109.587 34.5413 109.373 34.424C109.165 34.3013 108.933 34.24 108.677 34.24C108.4 34.24 108.147 34.312 107.917 34.456C107.688 34.6 107.504 34.7973 107.365 35.048C107.232 35.2987 107.165 35.584 107.165 35.904C107.165 36.2187 107.235 36.504 107.373 36.76C107.512 37.016 107.696 37.2213 107.925 37.376C108.155 37.5253 108.408 37.6 108.685 37.6C108.867 37.6 109.04 37.568 109.205 37.504C109.376 37.44 109.523 37.3547 109.645 37.248C109.773 37.136 109.859 37.016 109.901 36.888L110.437 37.048C110.363 37.2453 110.237 37.424 110.061 37.584C109.891 37.7387 109.688 37.8613 109.453 37.952C109.224 38.0373 108.976 38.08 108.709 38.08ZM113.452 38V34.32H111.964V33.832H115.484V34.32H113.996V38H113.452ZM117.336 38V33.84H117.88V37.264L120.416 33.832H120.904V38H120.36V34.632L117.864 38H117.336Z" fill="#414141"/>
</svg>
